<svg width="32" height="32" viewBox="0 0 32 32" fill="none" xmlns="http://www.w3.org/2000/svg">
<g clip-path="url(#clip0_7_814)">
<circle cx="16" cy="16" r="15" stroke="#47C2C4" stroke-width="2"/>
<mask id="mask0_7_814" style="mask-type:alpha" maskUnits="userSpaceOnUse" x="4" y="4" width="24" height="24">
<circle cx="16" cy="16" r="12" fill="#141414"/>
</mask>
<g mask="url(#mask0_7_814)">
<path opacity="0.5" d="M0 13C1.9289 13 3.78705 13.7265 5.20441 15.0348L7.18943 16.8672C9.71797 19.2012 13.6154 19.2012 16.1439 16.8672C18.5502 14.646 22.2212 14.5248 24.7687 16.5824L26.6662 18.115C28.1763 19.3347 30.0588 20 32 20V28H0V13Z" fill="#47C2C4"/>
<path d="M0 18H0.638088C2.19415 18 3.73168 17.6623 5.14452 17.0102L7.45832 15.9423C10.0058 14.7665 13.0108 15.2407 15.0724 17.1438C17.9509 19.8008 22.4568 19.5499 25.0224 16.5896L27.0352 14.2671C28.2831 12.8272 30.0946 12 32 12V28H0V18Z" fill="#47C2C4"/>
</g>
</g>
<defs>
<clipPath id="clip0_7_814">
<rect width="32" height="32" fill="white"/>
</clipPath>
</defs>
</svg>
